<?xml version="1.0" standalone="no"?>
<!DOCTYPE svg PUBLIC "-//W3C//DTD SVG 20010904//EN"
 "http://www.w3.org/TR/2001/REC-SVG-20010904/DTD/svg10.dtd">
<svg version="1.0" xmlns="http://www.w3.org/2000/svg"
 width="104.000000pt" height="32.000000pt" viewBox="0 0 104.000000 32.000000"
 preserveAspectRatio="xMidYMid meet">

<g transform="translate(0.000000,32.000000) scale(0.100000,-0.100000)"
fill="#000000" stroke="none">
<path d="M318 303 c-46 -12 -58 -19 -58 -35 0 -14 5 -18 19 -13 10 3 38 11 62
18 27 8 45 20 47 30 4 20 5 20 -70 0z"/>
<path d="M313 232 l-53 -15 0 -53 c0 -29 -3 -55 -7 -57 -5 -3 -27 -8 -50 -12
-40 -6 -43 -5 -43 15 0 20 -4 22 -32 16 -72 -14 -108 -27 -108 -40 0 -7 43
-29 98 -50 l97 -36 85 28 c67 23 86 33 88 50 3 21 3 21 23 1 10 -10 27 -19 37
-19 29 0 62 29 62 55 0 42 -66 61 -102 28 -17 -15 -18 -14 -18 45 0 69 3 68
-77 44z m156 -101 c19 -12 6 -41 -18 -41 -23 0 -34 23 -18 39 13 13 18 13 36
2z"/>
<path d="M530 111 c0 -39 4 -51 15 -51 8 0 15 7 15 17 0 15 1 15 18 0 22 -20
63 -24 44 -5 -9 9 -8 16 4 29 30 33 14 54 -44 57 l-52 3 0 -50z m75 19 c4 -6
-5 -10 -19 -10 -14 0 -26 5 -26 10 0 6 9 10 19 10 11 0 23 -4 26 -10z"/>
<path d="M650 111 l0 -51 44 0 c52 0 69 16 64 62 -3 32 -4 33 -55 36 l-53 3 0
-50z m78 1 c3 -18 -1 -22 -22 -22 -19 0 -26 5 -26 18 0 39 43 43 48 4z"/>
<path d="M783 110 c-21 -49 -21 -50 -2 -50 10 0 19 5 19 10 0 14 26 13 50 -2
29 -19 32 -5 11 46 -27 63 -50 62 -78 -4z m43 -7 c-10 -10 -19 5 -10 18 6 11
8 11 12 0 2 -7 1 -15 -2 -18z"/>
<path d="M900 110 c0 -38 4 -50 15 -50 10 0 15 10 15 28 l1 27 22 -27 c13 -16
30 -28 40 -28 14 0 17 9 17 50 0 38 -4 50 -15 50 -8 0 -15 -9 -15 -20 0 -11
-4 -20 -10 -20 -5 0 -14 9 -20 20 -6 11 -20 20 -30 20 -17 0 -20 -7 -20 -50z"/>
</g>
</svg>
